<svg width="157" height="44" viewBox="0 0 157 44" fill="none" xmlns="http://www.w3.org/2000/svg">
<path d="M30.6275 18.7373C30.5575 18.5498 30.485 18.3648 30.41 18.1823C30.3825 18.1173 30.3575 18.0523 30.33 17.9873C27.8725 12.1723 23.43 10.2348 21.3575 9.62984C21.1825 9.60984 21.08 9.58234 21.08 9.58234V9.59484C19.5105 9.13802 17.8845 8.90489 16.25 8.90234H16.1775C14.5075 8.90234 12.8225 9.14484 11.2375 9.61984C5.11746 11.4298 2.65996 16.3298 1.83746 18.5623C1.82746 18.6573 1.80996 18.7148 1.80996 18.7148H1.81246C1.26496 20.1848 0.927458 21.7248 0.839958 23.2473C0.607458 27.1973 1.29996 31.1773 4.48496 33.9248C6.24746 35.4448 8.43996 36.4773 10.7 37.0348C11.56 37.2498 13.78 37.7423 16.1075 37.7423C18.435 37.7423 20.87 37.2498 21.73 37.0348C23.99 36.4773 26.1825 35.4448 27.9475 33.9248C31.13 31.1773 31.8225 27.1998 31.5925 23.2473C31.5025 21.7323 31.1675 20.2023 30.6275 18.7373V18.7373Z" fill="#F1F1F1"/>
<path d="M13.6101 23.98C13.8701 22.68 13.2126 21.2 12.0426 20.5475C10.3701 19.62 8.34764 19.9275 6.84764 21.0225C5.98014 21.655 4.93014 22.615 4.37764 23.545C3.41014 25.18 3.21764 27.65 4.50264 29.235C5.30014 30.2175 6.68014 30.5775 7.87764 30.3575C9.29014 30.095 10.2076 29.05 11.0701 27.98C11.8851 26.96 12.8551 25.9775 13.3676 24.7575C13.4751 24.5025 13.5601 24.2425 13.6101 23.98V23.98ZM10.3826 24.8825C9.50014 24.8825 8.78514 24.185 8.78514 23.325C8.78514 22.4625 9.50014 21.7625 10.3826 21.7625C11.2651 21.7625 11.9826 22.4625 11.9826 23.325C11.9826 24.185 11.2676 24.8825 10.3826 24.8825ZM27.9876 29.465C29.3451 27.7875 29.1426 25.1775 28.1176 23.45C27.5376 22.4675 26.4251 21.4525 25.5101 20.785C23.9276 19.625 21.7876 19.3 20.0226 20.2825C18.7801 20.9725 18.0901 22.5375 18.3651 23.91C18.4176 24.1875 18.5101 24.4625 18.6176 24.73C19.1626 26.02 20.1851 27.0575 21.0501 28.1375C21.9551 29.2675 22.9301 30.37 24.4201 30.6475C25.6851 30.8825 27.1426 30.5 27.9876 29.465ZM21.8301 24.8825C20.9476 24.8825 20.2326 24.185 20.2326 23.325C20.2326 22.4625 20.9501 21.7625 21.8301 21.7625C22.7126 21.7625 23.4276 22.4625 23.4276 23.325C23.4276 24.185 22.7126 24.8825 21.8301 24.8825ZM18.8026 31.0725C18.7676 31.12 17.9826 32.2 16.1351 32.2C14.3001 32.2 13.5126 31.1275 13.4726 31.0725C13.3863 30.9467 13.2536 30.8603 13.1036 30.8322C12.9537 30.8041 12.7987 30.8365 12.6726 30.9225C12.5459 31.0085 12.4584 31.1413 12.4294 31.2917C12.4003 31.4421 12.4321 31.5979 12.5176 31.725C12.5626 31.7925 13.6526 33.355 16.1326 33.355C18.6151 33.355 19.7076 31.79 19.7526 31.725C19.9301 31.4625 19.8651 31.1075 19.6026 30.9275C19.3451 30.7475 18.9851 30.815 18.8026 31.0725V31.0725ZM16.1376 30.0675C17.5226 30.0675 18.6476 29.1625 18.6476 28.045C18.6476 26.9275 17.5226 26.0225 16.1376 26.0225C14.7526 26.0225 13.6301 26.9275 13.6301 28.045C13.6301 29.1625 14.7526 30.0675 16.1376 30.0675V30.0675ZM30.3301 17.9875C30.3151 17.9525 30.3026 17.9175 30.2876 17.8825V17.6275C30.3351 17.3475 30.5501 17.135 30.7126 16.91L30.8126 16.775C31.0426 16.4325 31.2226 16.06 31.3801 15.68C32.1151 13.93 32.1351 11.975 31.2101 10.5425C30.5551 9.52998 27.9676 6.90248 23.8851 9.12498C22.8151 9.70748 21.8251 9.68498 21.3601 9.62998C23.4301 10.235 27.8726 12.175 30.3301 17.9875V17.9875ZM11.2376 9.61998C11.1201 9.65498 11.0001 9.68998 10.8826 9.72748C10.6526 9.77748 9.45514 9.98248 8.12764 9.25998C4.04514 7.03998 1.45514 9.66498 0.800142 10.6775C0.517642 11.1175 0.307642 11.6475 0.197642 12.1525C-0.00485836 13.11 0.0751416 14.175 0.370142 15.1075C0.527642 15.6075 0.760142 16.075 1.00514 16.54C1.16264 16.8475 1.32764 17.1525 1.53014 17.4375C1.86014 17.9 1.86514 18.34 1.84014 18.5625C2.66014 16.33 5.11764 11.43 11.2376 9.61998V9.61998Z" fill="#2F2F2F"/>
<path d="M49.1598 31.2802C46.6398 31.2802 44.6931 30.6402 43.3198 29.3602C41.9598 28.0802 41.2798 26.0335 41.2798 23.2202C41.2798 17.8468 43.8931 15.1602 49.1198 15.1602C50.3865 15.1602 51.5598 15.3135 52.6398 15.6202C53.7331 15.9268 54.5465 16.2668 55.0798 16.6402V21.6402H50.2798V20.2002C50.2798 19.6935 50.1665 19.3202 49.9398 19.0802C49.7131 18.8402 49.3731 18.7202 48.9198 18.7202C48.4665 18.7202 48.1265 18.8402 47.8998 19.0802C47.6731 19.3202 47.5598 19.6935 47.5598 20.2002V26.2402C47.5598 26.7468 47.6731 27.1202 47.8998 27.3602C48.1265 27.6002 48.4665 27.7202 48.9198 27.7202C49.3731 27.7202 49.7131 27.6002 49.9398 27.3602C50.1665 27.1202 50.2798 26.7468 50.2798 26.2402V24.6202H55.0798V29.8002C54.5331 30.1735 53.7198 30.5135 52.6398 30.8202C51.5731 31.1268 50.4131 31.2802 49.1598 31.2802Z" fill="#3D352C"/>
<path d="M69.8734 27.7202V31.0002H63.5534V27.7202H64.3934V24.4402C64.3934 24.0002 64.3 23.6802 64.1134 23.4802C63.9267 23.2668 63.6467 23.1602 63.2734 23.1602C62.4734 23.1602 62.0734 23.5868 62.0734 24.4402V27.7202H62.9134V31.0002H56.5934V27.7202H57.4734V18.7202H56.5934V15.4402H62.0734V21.4402C62.5667 20.8268 63.1 20.3668 63.6734 20.0602C64.2467 19.7535 64.9134 19.6002 65.6734 19.6002C66.78 19.6002 67.6067 19.9468 68.1534 20.6402C68.7134 21.3335 68.9934 22.2868 68.9934 23.5002V27.7202H69.8734Z" fill="#3D352C"/>
<path d="M72.2792 18.7802V15.4402H76.3592V18.7802H72.2792ZM71.3192 31.0002V27.7202H72.1992V23.1602H71.3192V19.8802H76.7992V27.7202H77.6792V31.0002H71.3192Z" fill="#3D352C"/>
<path d="M79.0332 31.0202V27.7202H79.9132V18.7202H79.0332V15.4402H84.5132V27.7202H85.3932V31.0202H79.0332Z" fill="#3D352C"/>
<path d="M86.8254 31.0202V27.7202H87.7054V18.7202H86.8254V15.4402H92.3054V27.7202H93.1854V31.0202H86.8254Z" fill="#3D352C"/>
<path d="M99.6836 16.7227C101.526 16.7227 102.87 17.084 103.717 17.8066C104.57 18.5228 104.996 19.5514 104.996 20.8926C104.996 21.498 104.895 22.0742 104.693 22.6211C104.498 23.1615 104.179 23.64 103.736 24.0566C103.294 24.4668 102.711 24.7923 101.988 25.0332C101.272 25.2676 100.393 25.3848 99.3516 25.3848H97.6133V31H95.9531V16.7227H99.6836ZM99.5273 18.1387H97.6133V23.959H99.166C100.077 23.959 100.836 23.8613 101.441 23.666C102.053 23.4707 102.512 23.1549 102.818 22.7188C103.124 22.276 103.277 21.6901 103.277 20.9609C103.277 20.0104 102.975 19.304 102.369 18.8418C101.764 18.373 100.816 18.1387 99.5273 18.1387Z" fill="#3D352C"/>
<path d="M111.744 20.1211C113.02 20.1211 113.967 20.4076 114.586 20.9805C115.204 21.5534 115.514 22.4681 115.514 23.7246V31H114.332L114.02 29.418H113.941C113.642 29.8086 113.329 30.1374 113.004 30.4043C112.678 30.6647 112.301 30.8633 111.871 31C111.448 31.1302 110.927 31.1953 110.309 31.1953C109.658 31.1953 109.078 31.0814 108.57 30.8535C108.069 30.6257 107.672 30.2806 107.379 29.8184C107.092 29.3561 106.949 28.7702 106.949 28.0605C106.949 26.9928 107.372 26.1725 108.219 25.5996C109.065 25.0267 110.354 24.7142 112.086 24.6621L113.932 24.584V23.9297C113.932 23.0052 113.733 22.3574 113.336 21.9863C112.939 21.6152 112.379 21.4297 111.656 21.4297C111.096 21.4297 110.562 21.5111 110.055 21.6738C109.547 21.8366 109.065 22.0286 108.609 22.25L108.111 21.0195C108.593 20.7721 109.146 20.5605 109.771 20.3848C110.396 20.209 111.054 20.1211 111.744 20.1211ZM113.912 25.7266L112.281 25.7949C110.947 25.847 110.006 26.0651 109.459 26.4492C108.912 26.8333 108.639 27.377 108.639 28.0801C108.639 28.6921 108.824 29.1445 109.195 29.4375C109.566 29.7305 110.058 29.877 110.67 29.877C111.62 29.877 112.398 29.6133 113.004 29.0859C113.609 28.5586 113.912 27.7676 113.912 26.7129V25.7266Z" fill="#3D352C"/>
<path d="M123.922 20.1016C125.191 20.1016 126.152 20.4141 126.803 21.0391C127.454 21.6576 127.779 22.6536 127.779 24.0273V31H126.178V24.1348C126.178 23.2428 125.973 22.5755 125.562 22.1328C125.159 21.6901 124.537 21.4688 123.697 21.4688C122.512 21.4688 121.679 21.804 121.197 22.4746C120.715 23.1452 120.475 24.1185 120.475 25.3945V31H118.854V20.2969H120.162L120.406 21.8398H120.494C120.722 21.4622 121.012 21.1465 121.363 20.8926C121.715 20.6322 122.109 20.4368 122.545 20.3066C122.981 20.1699 123.44 20.1016 123.922 20.1016Z" fill="#3D352C"/>
<path d="M134.928 31.1953C133.574 31.1953 132.499 30.7331 131.705 29.8086C130.917 28.8841 130.523 27.5104 130.523 25.6875C130.523 23.8451 130.927 22.4551 131.734 21.5176C132.542 20.5736 133.616 20.1016 134.957 20.1016C135.523 20.1016 136.018 20.1764 136.441 20.3262C136.865 20.4759 137.229 20.6777 137.535 20.9316C137.841 21.179 138.098 21.4622 138.307 21.7812H138.424C138.398 21.5794 138.372 21.3027 138.346 20.9512C138.32 20.5996 138.307 20.3132 138.307 20.0918V15.8047H139.928V31H138.619L138.375 29.4766H138.307C138.105 29.7956 137.848 30.0853 137.535 30.3457C137.229 30.6061 136.861 30.8145 136.432 30.9707C136.008 31.1204 135.507 31.1953 134.928 31.1953ZM135.182 29.8477C136.327 29.8477 137.138 29.5221 137.613 28.8711C138.089 28.2201 138.326 27.2533 138.326 25.9707V25.6777C138.326 24.3171 138.098 23.2721 137.643 22.543C137.193 21.8138 136.373 21.4492 135.182 21.4492C134.186 21.4492 133.44 21.8333 132.945 22.6016C132.451 23.3633 132.203 24.4049 132.203 25.7266C132.203 27.0417 132.447 28.0573 132.936 28.7734C133.43 29.4896 134.179 29.8477 135.182 29.8477Z" fill="#3D352C"/>
<path d="M147.369 20.1211C148.645 20.1211 149.592 20.4076 150.211 20.9805C150.829 21.5534 151.139 22.4681 151.139 23.7246V31H149.957L149.645 29.418H149.566C149.267 29.8086 148.954 30.1374 148.629 30.4043C148.303 30.6647 147.926 30.8633 147.496 31C147.073 31.1302 146.552 31.1953 145.934 31.1953C145.283 31.1953 144.703 31.0814 144.195 30.8535C143.694 30.6257 143.297 30.2806 143.004 29.8184C142.717 29.3561 142.574 28.7702 142.574 28.0605C142.574 26.9928 142.997 26.1725 143.844 25.5996C144.69 25.0267 145.979 24.7142 147.711 24.6621L149.557 24.584V23.9297C149.557 23.0052 149.358 22.3574 148.961 21.9863C148.564 21.6152 148.004 21.4297 147.281 21.4297C146.721 21.4297 146.188 21.5111 145.68 21.6738C145.172 21.8366 144.69 22.0286 144.234 22.25L143.736 21.0195C144.218 20.7721 144.771 20.5605 145.396 20.3848C146.021 20.209 146.679 20.1211 147.369 20.1211ZM149.537 25.7266L147.906 25.7949C146.572 25.847 145.631 26.0651 145.084 26.4492C144.537 26.8333 144.264 27.377 144.264 28.0801C144.264 28.6921 144.449 29.1445 144.82 29.4375C145.191 29.7305 145.683 29.877 146.295 29.877C147.245 29.877 148.023 29.6133 148.629 29.0859C149.234 28.5586 149.537 27.7676 149.537 26.7129V25.7266Z" fill="#3D352C"/>
</svg>
